# xmcd
#
# Track frame offsets: 
#        150
#        13666
#        26633
#        40881
#        53314
#        65380
#        79573
#        93080
#        106907
#        119549
#        132563
#        144533
#        158385
#        170970
#        183603
#        196747
#        209389
#        224097
#        239051
#        251712
#        264880
#        278692
#        292467
#        305190
#        316692
#        331015
#
# Disc length: 4606 seconds
#
# Revision: 1
# Processed by: cddbd v1.5.2PL0 Copyright (c) Steve Scherf et al.
# Submitted via: ExactAudioCopy v0.95b4
#
DISCID=8111fc1a
DTITLE=The Carter Family - Country Folk - Disc 2: Worried Man Blues
DYEAR=2007
DGENRE=Country
TTITLE0=The Cannonball
TTITLE1=The Little Log Hut In The Lane
TTITLE2=When The World's On Fire
TTITLE3=Worried Man Blues
TTITLE4=Lonesome Valley
TTITLE5=On The Rock Where Moses Stood
TTITLE6=Lonesome Pine Special
TTITLE7=No More The Moon Shines On Lorena
TTITLE8=Darling Nellie Across The Sea
TTITLE9=Sow 'Em On The Mountain
TTITLE10=Weary Prodigal Son
TTITLE11=When I'm Gone
TTITLE12=Sunshine In The Shadows
TTITLE13=Lonesome For You
TTITLE14=Can't Feel At Home
TTITLE15=Mid The Green Fields Of Virginia
TTITLE16=Happiest Days Of All
TTITLE17=Picture On The Wall
TTITLE18=Amber Tresses
TTITLE19=I Never Loved But One
TTITLE20=Tell Me That You Love Me
TTITLE21=Where We'll Never Grow Old
TTITLE22=We Will March Though The Streets Of The City
TTITLE23=I'll Be Home Someday
TTITLE24=Faded Coat Of Blue
TTITLE25=The Sailor Boy
EXTD=YEAR: 2007
EXTT0=
EXTT1=
EXTT2=
EXTT3=
EXTT4=
EXTT5=
EXTT6=
EXTT7=
EXTT8=
EXTT9=
EXTT10=
EXTT11=
EXTT12=
EXTT13=
EXTT14=
EXTT15=
EXTT16=
EXTT17=
EXTT18=
EXTT19=
EXTT20=
EXTT21=
EXTT22=
EXTT23=
EXTT24=
EXTT25=
PLAYORDER=
